<?xml version="1.0" standalone="no"?>
<!DOCTYPE svg PUBLIC "-//W3C//DTD SVG 20010904//EN"
 "http://www.w3.org/TR/2001/REC-SVG-20010904/DTD/svg10.dtd">
<svg version="1.0" xmlns="http://www.w3.org/2000/svg"
 width="700.000000pt" height="700.000000pt" viewBox="0 0 700.000000 700.000000"
 preserveAspectRatio="xMidYMid meet">
<metadata>
Created by potrace 1.11, written by Peter Selinger 2001-2013
</metadata>
<g transform="translate(0.000000,700.000000) scale(0.100000,-0.100000)"
fill="#000000" stroke="none">
<path d="M3299 6996 c-2 -2 -43 -6 -90 -10 -104 -7 -306 -35 -379 -52 -14 -3
-36 -8 -50 -11 -86 -15 -271 -67 -392 -109 -1029 -356 -1827 -1172 -2162
-2209 -49 -152 -106 -389 -121 -505 -1 -8 -5 -42 -10 -75 -4 -33 -9 -73 -11
-90 -24 -176 -24 -609 0 -745 3 -14 7 -51 11 -83 5 -50 20 -139 40 -242 36
-182 129 -480 202 -645 119 -269 235 -471 393 -685 36 -49 69 -95 73 -102 4
-6 -2 -33 -14 -60 -11 -26 -26 -61 -33 -78 -7 -16 -28 -64 -46 -105 -17 -41
-38 -88 -45 -105 -132 -298 -360 -839 -365 -869 -15 -75 28 -159 99 -195 44
-23 119 -22 251 4 91 18 106 21 160 29 19 3 60 10 90 16 30 6 71 13 90 16 19
3 82 14 140 24 58 11 119 21 135 24 41 7 205 35 230 40 11 2 40 7 65 12 25 4
47 8 50 9 3 1 25 5 50 9 25 4 106 18 180 31 74 13 151 27 170 30 19 3 58 10
85 15 65 12 102 19 145 26 19 3 49 9 66 13 25 7 55 1 135 -25 103 -33 332 -92
439 -113 70 -13 263 -38 360 -47 144 -12 471 -6 599 10 20 3 61 8 91 11 217
24 593 115 745 180 17 7 68 28 115 46 311 121 685 350 959 588 148 128 355
347 461 487 25 32 47 61 50 64 10 9 127 185 177 265 274 440 457 1012 491
1535 12 188 5 515 -13 645 -2 17 -9 66 -15 110 -30 219 -123 572 -195 740 -7
17 -31 75 -55 130 -201 477 -542 925 -984 1293 -227 190 -597 405 -891 520
-181 70 -149 59 -310 107 -185 54 -418 99 -625 121 -60 6 -536 15 -541 10z
m133 -2767 c53 -27 64 -39 87 -90 49 -108 -13 -233 -126 -257 -21 -4 -276 -7
-568 -7 -526 1 -530 1 -572 23 -81 42 -123 152 -90 231 17 40 75 97 110 109
20 6 237 10 575 11 534 1 543 1 584 -20z m1316 -938 c137 -70 134 -272 -4
-333 -46 -20 -61 -20 -1243 -20 -1027 0 -1202 2 -1232 15 -94 39 -143 151
-105 240 26 64 76 103 147 115 23 4 570 7 1217 6 l1177 -1 43 -22z"/>
</g>
</svg>
