<svg xmlns="http://www.w3.org/2000/svg" viewBox="0 0 512 512" height="22"><path d="M277.333 245.333c35.307 0 63.787-28.693 63.787-64s-28.48-64-63.787-64-64 28.693-64 64 28.694 64 64 64zM384 245.333c35.307 0 63.787-28.693 63.787-64s-28.48-64-63.787-64c-6.827 0-13.333 1.067-19.52 3.093 12.053 17.28 19.307 38.293 19.307 60.907 0 22.613-7.253 43.627-19.307 60.907 6.187 2.027 12.693 3.093 19.52 3.093zM277.333 288c-42.667 0-128 21.333-128 64v42.667h256V352c0-42.667-85.333-64-128-64zM418.56 291.413C436.267 306.88 448 326.827 448 352v42.667h64V352c0-32.853-50.667-53.013-93.44-60.587zM170.667 224h-64v-64H64v64H0v42.667h64v64h42.667v-64h64z"/></svg>